<?xml version="1.0" standalone="no"?>
<!DOCTYPE svg PUBLIC "-//W3C//DTD SVG 20010904//EN"
 "http://www.w3.org/TR/2001/REC-SVG-20010904/DTD/svg10.dtd">
<svg version="1.0" xmlns="http://www.w3.org/2000/svg"
 width="5834.000000pt" height="1255.000000pt" viewBox="0 0 5834.000000 1255.000000"
 preserveAspectRatio="xMidYMid meet">

<g transform="translate(0.000000,1255.000000) scale(0.100000,-0.100000)"
fill="#000000" stroke="none">
<path d="M2817 7736 c10 -13 162 -189 338 -390 l320 -366 1687 0 1688 0 0
-155 0 -155 -1690 0 -1690 0 0 -940 0 -940 1903 0 c2131 0 1958 -6 2124 76
156 77 281 211 344 369 23 59 24 68 27 414 4 408 6 396 -95 563 l-54 89 19 27
c30 42 77 140 106 220 l26 73 0 570 0 569 -2536 0 -2536 0 19 -24z m4033
-2006 l0 -160 -1180 0 -1180 0 0 160 0 160 1180 0 1180 0 0 -160z"/>
<path d="M9327 7738 c11 -13 163 -186 337 -386 l316 -363 0 -1100 0 -1099
1785 0 1785 0 0 390 0 390 -1270 0 -1270 0 0 1095 0 1095 -852 0 -851 0 20
-22z"/>
<path d="M15615 7746 c-279 -44 -451 -186 -511 -425 -10 -40 -16 -113 -17
-200 l-2 -136 1698 -3 1697 -2 0 -705 0 -705 -1185 0 -1185 0 0 495 0 495
-516 0 -515 0 3 -612 c4 -541 6 -620 21 -673 69 -241 248 -393 542 -461 76
-18 156 -19 1645 -19 1470 0 1570 1 1649 18 233 50 406 167 493 333 71 135 69
93 66 1182 l-3 977 -26 66 c-36 94 -73 152 -132 212 -67 66 -151 111 -274 145
l-98 27 -1635 2 c-1273 1 -1653 -2 -1715 -11z"/>
<path d="M26470 7756 c0 -2 151 -177 335 -388 l335 -383 0 -1097 0 -1098 510
0 510 0 0 550 0 550 258 0 258 0 639 -550 638 -550 701 0 c683 0 700 0 681 19
-11 10 -384 332 -830 716 -445 384 -823 710 -838 725 l-28 27 838 723 c461
398 847 731 858 741 19 19 2 19 -681 19 l-700 0 -630 -544 -629 -545 -267 0
-268 -1 0 545 0 545 -845 0 c-465 0 -845 -2 -845 -4z"/>
<path d="M32702 7742 c7 -10 159 -186 338 -390 l324 -372 1558 0 1558 0 0
-220 0 -220 -1560 0 -1560 0 0 -875 0 -875 510 0 510 0 0 485 0 485 1298 2
1297 3 84 32 c171 66 307 186 381 337 69 139 72 168 67 696 -3 411 -6 473 -22
530 -55 200 -175 314 -395 376 -62 18 -160 19 -2233 22 -2107 2 -2168 2 -2155
-16z"/>
<path d="M39575 7746 c-278 -44 -450 -186 -510 -421 -10 -39 -15 -107 -15
-202 l0 -143 1695 0 1695 0 0 -705 0 -705 -1185 0 -1185 0 0 495 0 495 -510 0
-510 0 0 -613 c0 -670 0 -670 60 -792 37 -76 105 -153 185 -210 78 -56 153
-90 275 -124 l95 -26 1535 -3 c1594 -3 1614 -3 1769 39 222 59 396 210 463
399 l23 65 3 979 c3 1085 6 1032 -63 1173 -44 89 -127 176 -213 221 -34 18
-106 45 -159 60 l-98 27 -1635 2 c-1273 1 -1653 -2 -1715 -11z"/>
<path d="M44732 7742 c7 -10 159 -186 337 -390 l325 -372 1548 0 1548 0 0
-220 0 -220 -1550 0 -1550 0 0 -875 0 -875 510 0 510 0 0 485 0 485 491 0 490
0 500 -485 500 -485 632 0 632 0 -495 495 -495 495 52 0 c230 0 488 89 621
214 84 80 126 149 152 250 19 74 20 110 20 540 0 515 -3 548 -66 674 -68 138
-180 226 -353 275 l-76 22 -2148 3 c-2091 2 -2148 2 -2135 -16z"/>
<path d="M50750 7755 c0 -3 151 -179 336 -390 l336 -385 734 0 734 0 0 -1095
0 -1095 510 0 510 0 0 1095 0 1095 815 0 815 0 0 390 0 390 -2395 0 c-1317 0
-2395 -2 -2395 -5z"/>
</g>
</svg>
